HIERARCHY
ROOT SpineBase
{
  OFFSET 0.000000 0.000000 0.000000
  CHANNELS 6 Xposition Yposition Zposition Zrotation Xrotation Yrotation
  JOINT SpineMid
  {
    OFFSET -0.000000 32.760985 0.000000
    CHANNELS 3 Zrotation Xrotation Yrotation
    JOINT SpineShoulder
    {
      OFFSET -0.199192 24.318152 -0.969706
      CHANNELS 3 Zrotation Xrotation Yrotation
      JOINT Neck
      {
        OFFSET -0.134781 8.050961 -0.679220
        CHANNELS 3 Zrotation Xrotation Yrotation
        JOINT Head
        {
          OFFSET -6.717272 11.653272 2.977084
          CHANNELS 3 Zrotation Xrotation Yrotation
          End Site
          {
            OFFSET 0 0 0
          }
        }
      }
      JOINT ShoulderLeft
      {
        OFFSET -8.346159 -6.224202 13.321439
        CHANNELS 3 Zrotation Xrotation Yrotation
        JOINT ElbowLeft
        {
          OFFSET -3.052506 -31.331447 0.640561
          CHANNELS 3 Zrotation Xrotation Yrotation
          JOINT WristLeft
          {
            OFFSET -4.007222 -23.907141 0.211278
            CHANNELS 3 Zrotation Xrotation Yrotation
            JOINT HandLeft
            {
              OFFSET -4.794987 -5.634114 1.843346
              CHANNELS 3 Zrotation Xrotation Yrotation
              JOINT HandTipLeft
              {
                OFFSET -2.323654 -7.197599 -1.975111
                CHANNELS 3 Zrotation Xrotation Yrotation
                End Site
                {
                  OFFSET 0 0 0
                }
              }
              JOINT ThumbLeft
              {
                OFFSET -2.740616 1.676830 1.452816
                CHANNELS 3 Zrotation Xrotation Yrotation
                End Site
                {
                  OFFSET 0 0 0
                }
              }
            }
          }
        }
      }
      JOINT ShoulderRight
      {
        OFFSET 3.750659 -4.953402 -14.355713
        CHANNELS 3 Zrotation Xrotation Yrotation
        JOINT ElbowRight
        {
          OFFSET -4.850881 -25.714251 -4.895984
          CHANNELS 3 Zrotation Xrotation Yrotation
          JOINT WristRight
          {
            OFFSET -8.996161 -20.650836 4.501624
            CHANNELS 3 Zrotation Xrotation Yrotation
            JOINT HandRight
            {
              OFFSET -1.587345 -8.445946 4.965871
              CHANNELS 3 Zrotation Xrotation Yrotation
              JOINT HandTipRight
              {
                OFFSET -3.095961 -8.461557 2.002990
                CHANNELS 3 Zrotation Xrotation Yrotation
                End Site
                {
                  OFFSET 0 0 0
                }
              }
              JOINT ThumbRight
              {
                OFFSET 4.407010 1.898480 2.333474
                CHANNELS 3 Zrotation Xrotation Yrotation
                End Site
                {
                  OFFSET 0 0 0
                }
              }
            }
          }
        }
      }
    }
  }
  JOINT HipLeft
  {
    OFFSET -3.822418 -0.227809 3.452663
    CHANNELS 3 Zrotation Xrotation Yrotation
    JOINT KneeLeft
    {
      OFFSET -13.407719 -25.813940 4.266683
      CHANNELS 3 Zrotation Xrotation Yrotation
      JOINT AnkleLeft
      {
        OFFSET -22.071154 -14.471746 -24.406708
        CHANNELS 3 Zrotation Xrotation Yrotation
        JOINT FootLeft
        {
          OFFSET -10.028445 -3.323066 -6.591587
          CHANNELS 3 Zrotation Xrotation Yrotation
          End Site
          {
            OFFSET 0 0 0
          }
        }
      }
    }
  }
  JOINT HipRight
  {
    OFFSET 2.808151 2.437523 -10.258266
    CHANNELS 3 Zrotation Xrotation Yrotation
    JOINT KneeRight
    {
      OFFSET -1.684748 -31.065869 1.402528
      CHANNELS 3 Zrotation Xrotation Yrotation
      JOINT AnkleRight
      {
        OFFSET -1.845934 -38.090521 5.736365
        CHANNELS 3 Zrotation Xrotation Yrotation
        JOINT FootRight
        {
          OFFSET -6.718365 -5.572987 -5.324544
          CHANNELS 3 Zrotation Xrotation Yrotation
          End Site
          {
            OFFSET 0 0 0
          }
        }
      }
    }
  }
}
MOTION
Frames: 12
Frame Time: 0.033333
42.299594 76.341873 289.291188 0.000000 0.000000 64.191711 -0.000000 0.000000 -64.191711 -0.000000 0.000000 0.000000 -0.000000 0.000000 0.000000 0.000000 0.000000 0.000000 -0.000000 0.000000 0.000000 -0.000000 0.000000 0.000000 -0.000000 0.000000 0.000000 -0.000000 0.000000 0.000000 0.000000 0.000000 0.000000 0.000000 0.000000 0.000000 -0.000000 0.000000 0.000000 -0.000000 0.000000 0.000000 -0.000000 0.000000 0.000000 -0.000000 0.000000 0.000000 0.000000 0.000000 0.000000 0.000000 0.000000 0.000000 -0.000000 0.000000 -64.191711 -0.000000 0.000000 0.000000 -0.000000 0.000000 0.000000 0.000000 0.000000 0.000000 -0.000000 0.000000 -64.191711 -0.000000 0.000000 0.000000 -0.000000 0.000000 0.000000 0.000000 0.000000 0.000000
42.270851 76.207225 289.277927 0.014002 -0.002290 64.324302 -0.004003 0.013612 -64.324301 -0.000000 0.000000 0.000000 -0.000000 0.000000 0.000000 0.000000 0.000000 0.000000 -0.000000 0.000000 0.000000 -0.000000 0.000000 0.000000 2.392939 3.374206 -2.220557 -3.443397 -6.636248 3.347185 0.000000 0.000000 0.000000 0.000000 0.000000 0.000000 -0.000000 0.000000 0.000000 -0.000000 0.000000 0.000000 2.761749 -0.985766 1.832021 -2.585399 2.792183 -2.399191 0.000000 0.000000 0.000000 0.000000 0.000000 0.000000 -0.086716 -0.746745 -64.006901 -0.647204 0.407576 -0.315627 -0.000000 0.000000 0.000000 0.000000 0.000000 0.000000 0.433580 -0.795220 -64.282209 -1.724145 -0.357813 -0.148206 1.836847 -0.002609 -0.505863 0.000000 0.000000 0.000000
42.249624 76.092038 289.272739 0.041360 -0.012891 64.432546 -0.006221 0.042873 -64.432539 -0.000000 0.000000 0.000000 -0.000000 0.000000 0.000000 0.000000 0.000000 0.000000 -0.000000 0.000000 0.000000 1.040367 -0.691294 0.131537 3.070999 6.422955 -4.106635 -5.592918 -11.855388 5.724315 0.000000 0.000000 0.000000 0.000000 0.000000 0.000000 -0.000000 0.000000 0.000000 -0.000000 0.000000 0.000000 4.743941 -1.557327 3.146616 -4.177419 4.749783 -4.050894 0.000000 0.000000 0.000000 0.000000 0.000000 0.000000 -0.094710 -1.249620 -63.913695 -1.755648 1.436471 -0.613608 0.642113 -0.781770 0.116081 0.000000 0.000000 0.000000 0.765021 -1.381730 -64.354803 -3.123031 -0.660497 -0.277533 3.366082 -0.002679 -0.904701 0.000000 0.000000 0.000000
42.235913 75.996311 289.275625 0.082017 -0.031758 64.517188 -0.006619 0.087701 -64.517160 -0.000000 0.000000 0.000000 -0.000000 0.000000 0.000000 0.000000 0.000000 0.000000 -0.000000 0.000000 0.000000 1.553777 -0.922290 0.181232 3.607675 8.189159 -5.392906 -6.739475 -15.691462 7.399196 0.000000 0.000000 0.000000 0.000000 0.000000 0.000000 -0.000000 0.000000 0.000000 -0.000000 0.000000 0.000000 5.947172 -1.777485 3.927251 -4.895158 5.803244 -4.988463 0.000000 0.000000 0.000000 0.000000 0.000000 0.000000 -0.024921 -1.509965 -63.911344 -2.356425 1.749133 -0.549329 0.939421 -1.020986 -0.019370 0.000000 0.000000 0.000000 1.007979 -1.781654 -64.412201 -4.204109 -0.903253 -0.384126 4.568457 -0.003621 -1.192815 0.000000 0.000000 0.000000
42.229717 75.920045 289.286585 0.135962 -0.058873 64.578912 -0.005192 0.148070 -64.578836 -0.000000 0.000000 0.000000 -0.000000 0.000000 0.000000 0.000000 0.000000 0.000000 -0.000000 0.000000 0.000000 2.056003 -1.070375 0.217432 3.516319 9.180085 -6.168564 -7.062373 -18.213103 8.522411 0.000000 0.000000 0.000000 0.000000 0.000000 0.000000 -0.000000 0.000000 0.000000 -0.000000 0.000000 0.000000 6.381651 -1.685335 4.172554 -4.815809 5.923579 -5.222047 0.000000 0.000000 0.000000 0.000000 0.000000 0.000000 0.122720 -1.528661 -64.000422 -2.778943 1.788519 -0.247757 1.220985 -1.162889 -0.282713 0.000000 0.000000 0.000000 1.172096 -2.010689 -64.456101 -4.969699 -1.081840 -0.464398 5.427770 -0.008934 -1.367114 0.000000 0.000000 0.000000
42.231036 75.863239 289.305619 0.203226 -0.094244 64.618347 -0.001965 0.224007 -64.618176 -0.000000 0.000000 0.000000 -0.000000 0.000000 0.000000 0.000000 0.000000 0.000000 -0.000000 0.000000 0.000000 2.542093 -1.132317 0.238259 2.817622 9.468740 -6.448338 -6.667581 -19.482385 9.164943 0.000000 0.000000 0.000000 0.000000 0.000000 0.000000 -0.000000 0.000000 0.000000 -0.000000 0.000000 0.000000 6.055960 -1.293438 3.886858 -3.966411 5.110134 -4.739836 0.000000 0.000000 0.000000 0.000000 0.000000 0.000000 0.349310 -1.305973 -64.182867 -3.023603 1.552834 0.286695 1.487597 -1.209755 -0.673508 0.000000 0.000000 0.000000 1.263817 -2.079287 -64.487524 -5.419348 -1.192934 -0.515357 5.931369 -0.021802 -1.425285 0.000000 0.000000 0.000000
42.228372 75.965884 289.189049 0.190512 0.068264 64.897081 -0.142640 0.143557 -64.897016 -0.000000 0.000000 0.000000 -0.000000 0.000000 0.000000 0.000000 0.000000 0.000000 -0.000000 0.000000 0.000000 3.636063 -0.130446 0.058460 -1.343160 6.460225 -4.995605 -4.394840 -18.213000 8.906154 0.000000 0.000000 0.000000 0.000000 0.000000 0.000000 -0.000000 0.000000 0.000000 -0.000000 0.000000 0.000000 6.220716 -0.744330 3.864716 -4.139602 4.155213 -4.579199 0.000000 0.000000 0.000000 0.000000 0.000000 0.000000 -0.113621 -1.139232 -64.431565 -2.710288 1.664935 0.433721 1.532154 -1.148541 -0.848702 0.000000 0.000000 0.000000 0.943207 -2.499476 -64.738117 -5.936607 -0.915629 -0.564788 6.454264 -0.162114 -1.415095 0.000000 0.000000 0.000000
42.207744 75.929763 289.198658 0.129792 0.054873 64.921248 -0.104714 0.094297 -64.921224 -0.000000 0.000000 0.000000 -0.000000 0.000000 0.000000 0.000000 0.000000 0.000000 -0.000000 0.000000 0.000000 0.573901 -1.732677 0.304411 1.421392 5.743446 -3.272296 -3.640736 -14.780807 6.627494 0.000000 0.000000 0.000000 0.000000 0.000000 0.000000 0.754153 -0.331638 -0.078989 -0.754622 0.330570 0.083349 3.558359 0.191935 2.064673 -0.942673 0.874152 -1.854407 0.000000 0.000000 0.000000 0.000000 0.000000 0.000000 0.667786 -0.715418 -64.926879 -3.027297 0.664808 1.700570 1.935653 -1.078912 -1.670512 0.000000 0.000000 0.000000 0.827988 -2.491977 -64.764250 -5.676972 -0.761150 -0.535892 5.733518 0.175894 -1.329670 0.000000 0.000000 0.000000
42.231423 75.798553 289.357772 0.208773 -0.168589 64.396977 0.061817 0.261126 -64.396811 -0.000000 0.000000 0.000000 -0.000000 0.000000 0.000000 0.000000 0.000000 0.000000 -0.000000 0.000000 0.000000 0.658374 -2.111444 0.372200 2.015750 7.040349 -4.031996 -2.326899 -13.832264 6.390545 0.000000 0.000000 0.000000 0.000000 0.000000 0.000000 -0.000000 0.000000 0.000000 -0.000000 0.000000 0.000000 0.426465 1.451503 -0.027695 3.821674 -2.977862 1.763235 0.000000 0.000000 0.000000 0.000000 0.000000 0.000000 1.748663 0.387735 -65.127006 -2.765659 -0.920750 3.163684 2.130164 -0.782160 -2.484163 0.000000 0.000000 0.000000 0.956857 -1.567038 -64.295539 -4.200961 -0.810238 -0.393497 4.268600 0.036891 -0.842243 0.000000 0.000000 0.000000
42.342480 75.567169 289.708480 0.523267 -0.629394 64.215497 0.339114 0.744944 -64.214828 1.182751 -0.228194 0.098288 -1.182367 0.230174 -0.093558 0.000000 0.000000 0.000000 -1.182367 0.230174 -0.093558 3.275115 -1.561523 0.336921 -2.590658 7.223245 -4.993779 -1.170919 -14.223999 7.747401 0.000000 0.000000 0.000000 0.000000 0.000000 0.000000 -1.182367 0.230174 -0.093558 -0.742643 -0.532500 0.066381 -1.921364 3.974104 -2.212234 8.972412 -6.139428 5.422488 0.000000 0.000000 0.000000 0.000000 0.000000 0.000000 3.241541 2.081811 -65.944480 -1.537697 -2.589394 3.162152 1.535311 -0.691763 -1.573234 0.000000 0.000000 0.000000 1.493380 -0.080207 -64.202200 -3.030016 -1.365772 -0.293568 5.586219 -1.908696 -0.235177 0.000000 0.000000 0.000000
42.339164 75.438714 290.063196 0.876254 -1.045374 65.180446 0.700370 -0.580269 -65.117094 0.693013 -0.396773 0.125931 -1.235631 0.971940 -0.521479 0.000000 0.000000 0.000000 -4.491178 1.406625 -0.193155 9.085663 -0.318913 0.183716 -6.036879 5.102284 -4.232580 -1.549902 -14.122057 7.303279 0.000000 0.000000 0.000000 0.000000 0.000000 0.000000 -3.652796 1.873245 -0.041969 -0.318659 -1.603931 -0.112368 -5.364012 7.818672 -5.016746 15.147499 -8.777810 9.893507 0.000000 0.000000 0.000000 0.000000 0.000000 0.000000 3.337762 3.787165 -67.346580 -0.815097 -3.591401 5.394600 2.798999 -0.192149 -4.804195 0.000000 0.000000 0.000000 1.773685 1.175118 -65.236158 -2.109711 -1.581031 -0.217310 5.132785 -2.432445 0.451086 0.000000 0.000000 0.000000
42.633515 75.026146 290.866567 2.272734 -2.215886 64.052430 0.781462 -1.101941 -63.903772 0.665118 -0.544290 0.198531 -2.459396 2.729733 -0.658669 0.000000 0.000000 0.000000 -5.944430 2.857991 -0.205162 15.018022 1.501790 -0.260391 -15.029360 5.072915 -6.438669 0.561920 -10.770752 8.217633 0.000000 0.000000 0.000000 0.000000 0.000000 0.000000 -7.647185 4.116615 0.325039 0.695065 -2.111365 -0.725686 -7.636742 10.524326 -6.837883 19.476744 -9.750901 13.054737 0.000000 0.000000 0.000000 0.000000 0.000000 0.000000 5.179091 5.481606 -66.933947 -4.619839 -4.571401 9.709537 5.686786 -0.911080 -9.439656 0.000000 0.000000 0.000000 3.357159 5.033422 -64.398841 -0.719766 -3.379088 -0.075417 3.883092 -2.023443 0.932047 0.000000 0.000000 0.000000
